<svg height="118pt" preserveAspectRatio="xMidYMid meet" viewBox="0 0 331 118" width="331pt" xmlns="http://www.w3.org/2000/svg"><g transform="matrix(.1 0 0 -.1 0 118)"><path d="m2611 1124c-229-61-391-270-391-504 0-284 236-520 520-520s520 236 520 520c0 286-238 522-525 519-38 0-94-7-124-15zm268-239c46-11 67-12 77-5 10 9 13-6 16-79 2-50 0-91-3-91-4 0-24 30-45 67-44 75-82 103-139 103-76-1-111-54-127-197-19-166 13-325 74-367 29-20 81-20 119 0 17 8 47 41 67 73s42 67 49 77c10 16 12 2 12-75 1-82-1-92-15-87-9 4-51-1-93-10-169-35-304 15-360 135-22 48-26 69-26 151 1 106 12 149 55 209 71 97 190 131 339 96z"/><path d="m463 1086c-88-22-164-66-234-135-200-201-200-512 0-712s512-200 711 1c201 202 201 510 1 709-128 128-306 179-478 137zm85-223-28-4v-237c0-259 6-292 60-319 47-24 132-13 166 22 38 38 44 78 44 309v225l-27 4c-16 2 1 4 37 5 41 0 56-3 40-7l-25-7-5-234c-3-138-10-245-17-260-12-27-46-62-78-78-36-18-130-24-191-12-77 16-120 43-147 94-20 38-22 57-25 268-4 223-4 227-25 231-12 2 39 4 113 4s123-2 108-4z"/><path d="m1531 1084c-126-34-258-140-316-254-101-200-60-437 102-592 201-191 509-184 701 16 95 98 142 214 142 346 0 224-158 428-375 485-73 19-182 18-254-1zm271-180c75-21 137-75 169-146 19-44 23-70 23-153 0-87-3-107-25-155-44-94-104-140-210-160-66-13-319-13-319-1 0 6 15 11 33 13l32 3 3 298 2 297h-35c-19 0-35 5-35 10 0 18 295 12 362-6z"/><path d="m1627 893c-4-3-7-136-7-293v-287l30-6c16-4 35-5 42-3 7 3 25 7 41 10 45 10 104 71 124 129 14 40 18 82 18 177 0 110-3 131-23 172-28 56-49 76-99 94-40 14-115 19-126 7z"/></g></svg>